<?xml version="1.0" encoding="UTF-8" standalone="no"?>
<!-- Created with Inkscape (http://www.inkscape.org/) -->

<svg
   width="10.698305mm"
   height="11.452595mm"
   viewBox="0 0 10.698305 11.452595"
   version="1.1"
   id="svg1"
   xml:space="preserve"
   xmlns="http://www.w3.org/2000/svg"
   xmlns:svg="http://www.w3.org/2000/svg"><defs
     id="defs1" /><g
     id="layer1"
     transform="translate(-98.223171,-122.69963)"><rect
       style="display:inline;fill:#000000;fill-opacity:1;stroke:none;stroke-width:0.0592033"
       id="rect16"
       width="10.698311"
       height="11.452601"
       x="98.223167"
       y="122.69964" /><path
       d="m 106.0962,122.93978 a 3.0830495,3.6330831 5.7837009 0 0 -0.79209,0.02 l -0.0955,0.79739 a 2.3220812,2.867476 6.0548719 0 1 0.59725,-0.0192 2.3220812,2.867476 6.0548719 0 1 1.9629,3.1395 2.3220812,2.867476 6.0548719 0 1 -2.6447,2.55472 2.3220812,2.867476 6.0548719 0 1 -0.57478,-0.16844 l -0.0805,0.67267 a 3.0830495,3.6330831 5.7837009 0 0 0.76364,0.21751 3.0830495,3.6330831 5.7837009 0 0 3.491,-3.21911 3.0830495,3.6330831 5.7837009 0 0 -2.62719,-3.99518 z"
       style="fill:#ffcc00;stroke-width:0.0756728"
       id="path16" /><g
       id="g17"
       style="fill:#ffffff"
       transform="translate(0.44537275,13.392995)"><rect
         style="fill:#ffffff;fill-opacity:1;stroke:none;stroke-width:0.0694096"
         id="rect1"
         width="1.5077701"
         height="7.2021785"
         x="98.91304"
         y="111.55959" /><circle
         style="fill:#ffffff;fill-opacity:1;stroke:none;stroke-width:0.0993114"
         id="path2"
         cx="104.34447"
         cy="112.83836"
         r="1.1365885" /><rect
         style="fill:#ffffff;fill-opacity:1;stroke:none;stroke-width:0.0568245"
         id="rect2"
         width="0.91592085"
         height="7.9464474"
         x="109.58092"
         y="-105.89882"
         transform="rotate(90)" /><rect
         style="fill:#ffffff;fill-opacity:1;stroke:none;stroke-width:0.0694096"
         id="rect5"
         width="1.5077701"
         height="7.2021785"
         x="101.41828"
         y="111.55959" /><rect
         style="fill:#ffffff;fill-opacity:1;stroke:none;stroke-width:0.0511281"
         id="rect6"
         width="0.92161733"
         height="6.3933392"
         x="119.50352"
         y="-104.37468"
         transform="rotate(90)" /></g><rect
       style="fill:#000000;fill-opacity:1;stroke:none;stroke-width:0.0630948"
       id="rect17"
       width="2.0359898"
       height="0.24485001"
       x="104.59101"
       y="122.7337" /></g></svg>
